<?xml version="1.0" encoding="UTF-8" standalone="no"?><svg xmlns="http://www.w3.org/2000/svg" xmlns:xlink="http://www.w3.org/1999/xlink" contentScriptType="application/ecmascript" contentStyleType="text/css" height="680px" preserveAspectRatio="none" style="width:1041px;height:680px;" version="1.1" viewBox="0 0 1041 680" width="1041px" zoomAndPan="magnify"><defs><filter height="300%" id="f16cqzr8toghvi" width="300%" x="-1" y="-1"><feGaussianBlur result="blurOut" stdDeviation="2.0"/><feColorMatrix in="blurOut" result="blurOut2" type="matrix" values="0 0 0 0 0 0 0 0 0 0 0 0 0 0 0 0 0 0 .4 0"/><feOffset dx="4.0" dy="4.0" in="blurOut2" result="blurOut3"/><feBlend in="SourceGraphic" in2="blurOut3" mode="normal"/></filter></defs><g><!--class ClinicaFIS--><rect fill="#FEFECE" filter="url(#f16cqzr8toghvi)" height="137.6328" id="ClinicaFIS" style="stroke: #A80036; stroke-width: 1.5;" width="794" x="6" y="8"/><ellipse cx="369.75" cy="24" fill="#ADD1B2" rx="11" ry="11" style="stroke: #A80036; stroke-width: 1.0;"/><path d="M372.0938,19.6719 L372.2656,19.75 C372.4844,19.4375 372.6875,19.3438 372.9844,19.3438 C373.2813,19.3438 373.5625,19.4844 373.7188,19.75 C373.8125,19.9063 373.8281,20.0313 373.8281,20.4688 L373.8281,21.8906 C373.8281,22.3125 373.7969,22.5 373.6875,22.6563 C373.5156,22.875 373.25,23.0156 372.9844,23.0156 C372.7656,23.0156 372.5313,22.9063 372.3906,22.7656 C372.25,22.6406 372.2188,22.5156 372.1563,22.1094 C372.0625,21.7031 371.8906,21.4844 371.4063,21.2031 C370.9375,20.9531 370.3281,20.7969 369.75,20.7969 C368.0156,20.7969 366.7656,22.1094 366.7656,23.8906 L366.7656,24.9844 C366.7656,26.6875 368.0625,27.7813 370.1094,27.7813 C370.875,27.7813 371.5625,27.6563 371.9844,27.3906 C372.1719,27.2969 372.1719,27.2969 372.625,26.8125 C372.8125,26.625 373.0156,26.5469 373.2344,26.5469 C373.7031,26.5469 374.0938,26.9375 374.0938,27.3906 C374.0938,27.7813 373.7656,28.2344 373.1875,28.6406 C372.4375,29.1875 371.2813,29.4844 370.0625,29.4844 C367.1719,29.4844 365.0625,27.5938 365.0625,25.0156 L365.0625,23.8906 C365.0625,21.1719 367.0625,19.0938 369.6875,19.0938 C370.5625,19.0938 371.1563,19.2344 372.0938,19.6719 Z "/><text fill="#000000" font-family="sans-serif" font-size="12" lengthAdjust="spacingAndGlyphs" textLength="58" x="390.25" y="28.1543">ClinicaFIS</text><line style="stroke: #A80036; stroke-width: 1.5;" x1="7" x2="799" y1="40" y2="40"/><text fill="#000000" font-family="sans-serif" font-size="11" lengthAdjust="spacingAndGlyphs" textLength="97" x="12" y="54.2104">direccion : String</text><text fill="#000000" font-family="sans-serif" font-size="11" lengthAdjust="spacingAndGlyphs" textLength="92" x="12" y="67.0151">telefono : String</text><text fill="#000000" font-family="sans-serif" font-size="11" lengthAdjust="spacingAndGlyphs" textLength="69" x="12" y="79.8198">web : String</text><line style="stroke: #A80036; stroke-width: 1.5;" x1="7" x2="799" y1="86.4141" y2="86.4141"/><text fill="#000000" font-family="sans-serif" font-size="11" lengthAdjust="spacingAndGlyphs" textLength="136" x="12" y="100.6245">obtenerDiaHoy() : Fecha</text><text fill="#000000" font-family="sans-serif" font-size="11" lengthAdjust="spacingAndGlyphs" textLength="782" x="12" y="113.4292">crearPaciente(dni : String, nombre : String, numeroTarjeta : String, direccion : String, telefono : String, fechaNacimiento : Fecha) : TODO</text><text fill="#000000" font-family="sans-serif" font-size="11" lengthAdjust="spacingAndGlyphs" textLength="253" x="12" y="126.2339">consultarPaciente(idPaciente: TODO) : TODO</text><text fill="#000000" font-family="sans-serif" font-size="11" lengthAdjust="spacingAndGlyphs" textLength="276" x="12" y="139.0386">datosClinicosPaciente(idPaciente: TODO) : TODO</text><!--class Paciente--><rect fill="#FEFECE" filter="url(#f16cqzr8toghvi)" height="265.6797" id="Paciente" style="stroke: #A80036; stroke-width: 1.5;" width="800" x="230" y="206"/><ellipse cx="598.25" cy="222" fill="#ADD1B2" rx="11" ry="11" style="stroke: #A80036; stroke-width: 1.0;"/><path d="M600.5938,217.6719 L600.7656,217.75 C600.9844,217.4375 601.1875,217.3438 601.4844,217.3438 C601.7813,217.3438 602.0625,217.4844 602.2188,217.75 C602.3125,217.9063 602.3281,218.0313 602.3281,218.4688 L602.3281,219.8906 C602.3281,220.3125 602.2969,220.5 602.1875,220.6563 C602.0156,220.875 601.75,221.0156 601.4844,221.0156 C601.2656,221.0156 601.0313,220.9063 600.8906,220.7656 C600.75,220.6406 600.7188,220.5156 600.6563,220.1094 C600.5625,219.7031 600.3906,219.4844 599.9063,219.2031 C599.4375,218.9531 598.8281,218.7969 598.25,218.7969 C596.5156,218.7969 595.2656,220.1094 595.2656,221.8906 L595.2656,222.9844 C595.2656,224.6875 596.5625,225.7813 598.6094,225.7813 C599.375,225.7813 600.0625,225.6563 600.4844,225.3906 C600.6719,225.2969 600.6719,225.2969 601.125,224.8125 C601.3125,224.625 601.5156,224.5469 601.7344,224.5469 C602.2031,224.5469 602.5938,224.9375 602.5938,225.3906 C602.5938,225.7813 602.2656,226.2344 601.6875,226.6406 C600.9375,227.1875 599.7813,227.4844 598.5625,227.4844 C595.6719,227.4844 593.5625,225.5938 593.5625,223.0156 L593.5625,221.8906 C593.5625,219.1719 595.5625,217.0938 598.1875,217.0938 C599.0625,217.0938 599.6563,217.2344 600.5938,217.6719 Z "/><text fill="#000000" font-family="sans-serif" font-size="12" lengthAdjust="spacingAndGlyphs" textLength="55" x="618.75" y="226.1543">Paciente</text><line style="stroke: #A80036; stroke-width: 1.5;" x1="231" x2="1029" y1="238" y2="238"/><text fill="#000000" font-family="sans-serif" font-size="11" lengthAdjust="spacingAndGlyphs" textLength="63" x="236" y="252.2104">dni : String</text><text fill="#000000" font-family="sans-serif" font-size="11" lengthAdjust="spacingAndGlyphs" textLength="90" x="236" y="265.0151">nombre : String</text><text fill="#000000" font-family="sans-serif" font-size="11" lengthAdjust="spacingAndGlyphs" textLength="110" x="236" y="277.8198">numeroTarjeta : int</text><text fill="#000000" font-family="sans-serif" font-size="11" lengthAdjust="spacingAndGlyphs" textLength="97" x="236" y="290.6245">direccion : String</text><text fill="#000000" font-family="sans-serif" font-size="11" lengthAdjust="spacingAndGlyphs" textLength="92" x="236" y="303.4292">telefono : String</text><text fill="#000000" font-family="sans-serif" font-size="11" lengthAdjust="spacingAndGlyphs" textLength="140" x="236" y="316.2339">fechaNacimiento : String</text><text fill="#000000" font-family="sans-serif" font-size="11" lengthAdjust="spacingAndGlyphs" textLength="91" x="236" y="329.0386">activo : Boolean</text><line style="stroke: #A80036; stroke-width: 1.5;" x1="231" x2="1029" y1="335.6328" y2="335.6328"/><text fill="#000000" font-family="sans-serif" font-size="11" lengthAdjust="spacingAndGlyphs" textLength="788" x="236" y="349.8433">crear(dni : String, nombre : String, numeroTarjeta : String, direccion : String, telefono : String, fechaNacimiento : Fecha, activo : Boolean)</text><text fill="#000000" font-family="sans-serif" font-size="11" lengthAdjust="spacingAndGlyphs" textLength="90" x="236" y="362.6479">getDni() : String</text><text fill="#000000" font-family="sans-serif" font-size="11" lengthAdjust="spacingAndGlyphs" textLength="117" x="236" y="375.4526">getNombre() : String</text><text fill="#000000" font-family="sans-serif" font-size="11" lengthAdjust="spacingAndGlyphs" textLength="157" x="236" y="388.2573">getNumeroTarjeta() : String</text><text fill="#000000" font-family="sans-serif" font-size="11" lengthAdjust="spacingAndGlyphs" textLength="124" x="236" y="401.062">getDireccion() : String</text><text fill="#000000" font-family="sans-serif" font-size="11" lengthAdjust="spacingAndGlyphs" textLength="121" x="236" y="413.8667">getTelefono() : String</text><text fill="#000000" font-family="sans-serif" font-size="11" lengthAdjust="spacingAndGlyphs" textLength="167" x="236" y="426.6714">getFechaNacimiento() : Fecha</text><text fill="#000000" font-family="sans-serif" font-size="11" lengthAdjust="spacingAndGlyphs" textLength="134" x="236" y="439.4761">obtenerInfoHC() : TODO</text><text fill="#000000" font-family="sans-serif" font-size="11" lengthAdjust="spacingAndGlyphs" textLength="166" x="236" y="452.2808">incluirHC(HC: HistorialClinico)</text><text fill="#000000" font-family="sans-serif" font-size="11" lengthAdjust="spacingAndGlyphs" textLength="134" x="236" y="465.0854">obtenerInfoHC() : TODO</text><!--class HistorialClinico--><rect fill="#FEFECE" filter="url(#f16cqzr8toghvi)" height="137.6328" id="HistorialClinico" style="stroke: #A80036; stroke-width: 1.5;" width="291" x="257.5" y="532"/><ellipse cx="353.25" cy="548" fill="#ADD1B2" rx="11" ry="11" style="stroke: #A80036; stroke-width: 1.0;"/><path d="M355.5938,543.6719 L355.7656,543.75 C355.9844,543.4375 356.1875,543.3438 356.4844,543.3438 C356.7813,543.3438 357.0625,543.4844 357.2188,543.75 C357.3125,543.9063 357.3281,544.0313 357.3281,544.4688 L357.3281,545.8906 C357.3281,546.3125 357.2969,546.5 357.1875,546.6563 C357.0156,546.875 356.75,547.0156 356.4844,547.0156 C356.2656,547.0156 356.0313,546.9063 355.8906,546.7656 C355.75,546.6406 355.7188,546.5156 355.6563,546.1094 C355.5625,545.7031 355.3906,545.4844 354.9063,545.2031 C354.4375,544.9531 353.8281,544.7969 353.25,544.7969 C351.5156,544.7969 350.2656,546.1094 350.2656,547.8906 L350.2656,548.9844 C350.2656,550.6875 351.5625,551.7813 353.6094,551.7813 C354.375,551.7813 355.0625,551.6563 355.4844,551.3906 C355.6719,551.2969 355.6719,551.2969 356.125,550.8125 C356.3125,550.625 356.5156,550.5469 356.7344,550.5469 C357.2031,550.5469 357.5938,550.9375 357.5938,551.3906 C357.5938,551.7813 357.2656,552.2344 356.6875,552.6406 C355.9375,553.1875 354.7813,553.4844 353.5625,553.4844 C350.6719,553.4844 348.5625,551.5938 348.5625,549.0156 L348.5625,547.8906 C348.5625,545.1719 350.5625,543.0938 353.1875,543.0938 C354.0625,543.0938 354.6563,543.2344 355.5938,543.6719 Z "/><text fill="#000000" font-family="sans-serif" font-size="12" lengthAdjust="spacingAndGlyphs" textLength="91" x="373.75" y="552.1543">HistorialClinico</text><line style="stroke: #A80036; stroke-width: 1.5;" x1="258.5" x2="547.5" y1="564" y2="564"/><text fill="#000000" font-family="sans-serif" font-size="11" lengthAdjust="spacingAndGlyphs" text-decoration="underline" textLength="83" x="263.5" y="578.2104">ultHistorial: int</text><line style="stroke: #000000; stroke-width: 1.0;" x1="263.5" x2="346.5" y1="580.2104" y2="580.2104"/><text fill="#000000" font-family="sans-serif" font-size="11" lengthAdjust="spacingAndGlyphs" textLength="114" x="263.5" y="591.0151">numeroHistoria : int</text><text fill="#000000" font-family="sans-serif" font-size="11" lengthAdjust="spacingAndGlyphs" textLength="125" x="263.5" y="603.8198">fechaApertura : Fecha</text><line style="stroke: #A80036; stroke-width: 1.5;" x1="258.5" x2="547.5" y1="610.4141" y2="610.4141"/><text fill="#000000" font-family="sans-serif" font-size="11" lengthAdjust="spacingAndGlyphs" textLength="279" x="263.5" y="624.6245">crear(fechaApertura : Fecha, paciente : Paciente)</text><text fill="#000000" font-family="sans-serif" font-size="11" lengthAdjust="spacingAndGlyphs" textLength="167" x="263.5" y="637.4292">obtenerNumeroHistoria() : int</text><text fill="#000000" font-family="sans-serif" font-size="11" lengthAdjust="spacingAndGlyphs" textLength="179" x="263.5" y="650.2339">obtenerFechaApertura() : Fecha</text><text fill="#000000" font-family="sans-serif" font-size="11" lengthAdjust="spacingAndGlyphs" textLength="187" x="263.5" y="663.0386">obtenerInfoAnotaciones() : TODO</text><!--class AnotacionHC--><rect fill="#FEFECE" filter="url(#f16cqzr8toghvi)" height="112.0234" id="AnotacionHC" style="stroke: #A80036; stroke-width: 1.5;" width="206" x="584" y="545"/><ellipse cx="642.75" cy="561" fill="#ADD1B2" rx="11" ry="11" style="stroke: #A80036; stroke-width: 1.0;"/><path d="M645.0938,556.6719 L645.2656,556.75 C645.4844,556.4375 645.6875,556.3438 645.9844,556.3438 C646.2813,556.3438 646.5625,556.4844 646.7188,556.75 C646.8125,556.9063 646.8281,557.0313 646.8281,557.4688 L646.8281,558.8906 C646.8281,559.3125 646.7969,559.5 646.6875,559.6563 C646.5156,559.875 646.25,560.0156 645.9844,560.0156 C645.7656,560.0156 645.5313,559.9063 645.3906,559.7656 C645.25,559.6406 645.2188,559.5156 645.1563,559.1094 C645.0625,558.7031 644.8906,558.4844 644.4063,558.2031 C643.9375,557.9531 643.3281,557.7969 642.75,557.7969 C641.0156,557.7969 639.7656,559.1094 639.7656,560.8906 L639.7656,561.9844 C639.7656,563.6875 641.0625,564.7813 643.1094,564.7813 C643.875,564.7813 644.5625,564.6563 644.9844,564.3906 C645.1719,564.2969 645.1719,564.2969 645.625,563.8125 C645.8125,563.625 646.0156,563.5469 646.2344,563.5469 C646.7031,563.5469 647.0938,563.9375 647.0938,564.3906 C647.0938,564.7813 646.7656,565.2344 646.1875,565.6406 C645.4375,566.1875 644.2813,566.4844 643.0625,566.4844 C640.1719,566.4844 638.0625,564.5938 638.0625,562.0156 L638.0625,560.8906 C638.0625,558.1719 640.0625,556.0938 642.6875,556.0938 C643.5625,556.0938 644.1563,556.2344 645.0938,556.6719 Z "/><text fill="#000000" font-family="sans-serif" font-size="12" lengthAdjust="spacingAndGlyphs" textLength="80" x="663.25" y="565.1543">AnotacionHC</text><line style="stroke: #A80036; stroke-width: 1.5;" x1="585" x2="789" y1="577" y2="577"/><text fill="#000000" font-family="sans-serif" font-size="11" lengthAdjust="spacingAndGlyphs" textLength="131" x="590" y="591.2104">fechaAnotacion : Fecha</text><text fill="#000000" font-family="sans-serif" font-size="11" lengthAdjust="spacingAndGlyphs" textLength="110" x="590" y="604.0151">comentario : String</text><line style="stroke: #A80036; stroke-width: 1.5;" x1="585" x2="789" y1="610.6094" y2="610.6094"/><text fill="#000000" font-family="sans-serif" font-size="11" lengthAdjust="spacingAndGlyphs" textLength="104" x="590" y="624.8198">getFecha() : Fecha</text><text fill="#000000" font-family="sans-serif" font-size="11" lengthAdjust="spacingAndGlyphs" textLength="138" x="590" y="637.6245">getComentario() : String</text><text fill="#000000" font-family="sans-serif" font-size="11" lengthAdjust="spacingAndGlyphs" textLength="194" x="590" y="650.4292">obtenerNombreSanitario() : String</text><!--class Sanitario--><rect fill="#FEFECE" filter="url(#f16cqzr8toghvi)" height="99.2188" id="Sanitario" style="stroke: #A80036; stroke-width: 1.5;" width="129" x="825.5" y="551.5"/><ellipse cx="858.95" cy="567.5" fill="#ADD1B2" rx="11" ry="11" style="stroke: #A80036; stroke-width: 1.0;"/><path d="M861.2938,563.1719 L861.4656,563.25 C861.6844,562.9375 861.8875,562.8438 862.1844,562.8438 C862.4813,562.8438 862.7625,562.9844 862.9188,563.25 C863.0125,563.4063 863.0281,563.5313 863.0281,563.9688 L863.0281,565.3906 C863.0281,565.8125 862.9969,566 862.8875,566.1563 C862.7156,566.375 862.45,566.5156 862.1844,566.5156 C861.9656,566.5156 861.7313,566.4063 861.5906,566.2656 C861.45,566.1406 861.4188,566.0156 861.3563,565.6094 C861.2625,565.2031 861.0906,564.9844 860.6063,564.7031 C860.1375,564.4531 859.5281,564.2969 858.95,564.2969 C857.2156,564.2969 855.9656,565.6094 855.9656,567.3906 L855.9656,568.4844 C855.9656,570.1875 857.2625,571.2813 859.3094,571.2813 C860.075,571.2813 860.7625,571.1563 861.1844,570.8906 C861.3719,570.7969 861.3719,570.7969 861.825,570.3125 C862.0125,570.125 862.2156,570.0469 862.4344,570.0469 C862.9031,570.0469 863.2938,570.4375 863.2938,570.8906 C863.2938,571.2813 862.9656,571.7344 862.3875,572.1406 C861.6375,572.6875 860.4813,572.9844 859.2625,572.9844 C856.3719,572.9844 854.2625,571.0938 854.2625,568.5156 L854.2625,567.3906 C854.2625,564.6719 856.2625,562.5938 858.8875,562.5938 C859.7625,562.5938 860.3563,562.7344 861.2938,563.1719 Z "/><text fill="#000000" font-family="sans-serif" font-size="12" lengthAdjust="spacingAndGlyphs" textLength="56" x="877.05" y="571.6543">Sanitario</text><line style="stroke: #A80036; stroke-width: 1.5;" x1="826.5" x2="953.5" y1="583.5" y2="583.5"/><text fill="#000000" font-family="sans-serif" font-size="11" lengthAdjust="spacingAndGlyphs" textLength="90" x="831.5" y="597.7104">nombre : String</text><text fill="#000000" font-family="sans-serif" font-size="11" lengthAdjust="spacingAndGlyphs" textLength="63" x="831.5" y="610.5151">dni : String</text><text fill="#000000" font-family="sans-serif" font-size="11" lengthAdjust="spacingAndGlyphs" textLength="84" x="831.5" y="623.3198">puesto : TODO</text><line style="stroke: #A80036; stroke-width: 1.5;" x1="826.5" x2="953.5" y1="629.9141" y2="629.9141"/><text fill="#000000" font-family="sans-serif" font-size="11" lengthAdjust="spacingAndGlyphs" textLength="117" x="831.5" y="644.1245">getNombre() : String</text><!--link ClinicaFIS to Paciente--><path d="M462.642,146.312 C478.733,164.743 496.705,185.327 514.736,205.98 " fill="none" id="ClinicaFIS-Paciente" style="stroke: #A80036; stroke-width: 1.0;"/><text fill="#000000" font-family="sans-serif" font-size="13" lengthAdjust="spacingAndGlyphs" textLength="23" x="484.4075" y="194.9362">1..*</text><!--link Paciente to HistorialClinico--><path d="M514.505,472.285 C496.543,492.859 478.647,513.356 462.618,531.715 " fill="none" id="Paciente-HistorialClinico" style="stroke: #A80036; stroke-width: 1.0;"/><text fill="#000000" font-family="sans-serif" font-size="13" lengthAdjust="spacingAndGlyphs" textLength="24" x="443.5286" y="520.8892">0..1</text><!--link ClinicaFIS to HistorialClinico--><path d="M264.513,146.078 C243.39,162.691 224.497,182.581 212,206 C156.342,310.301 156.342,367.699 212,472 C223.716,493.955 241.053,512.809 260.579,528.768 " fill="none" id="ClinicaFIS-HistorialClinico" style="stroke: #A80036; stroke-width: 1.0; stroke-dasharray: 7.0,7.0;"/><polygon fill="#A80036" points="264.513,531.922,259.9937,523.1712,260.6121,528.7942,254.9892,529.4126,264.513,531.922" style="stroke: #A80036; stroke-width: 1.0;"/><!--link AnotacionHC to Sanitario--><path d="M790.086,601 C800.057,601 810.027,601 819.998,601 " fill="none" id="AnotacionHC-Sanitario" style="stroke: #A80036; stroke-width: 1.0;"/><polygon fill="#A80036" points="825.212,601,816.212,597,820.212,601,816.212,605,825.212,601" style="stroke: #A80036; stroke-width: 1.0;"/><!--link HistorialClinico to AnotacionHC--><path d="M548.605,601 C555.926,601 563.247,601 570.567,601 " fill="none" id="HistorialClinico-AnotacionHC" style="stroke: #A80036; stroke-width: 1.0;"/><polygon fill="#A80036" points="583.745,601,577.745,597,571.745,601,577.745,605,583.745,601" style="stroke: #A80036; stroke-width: 1.0;"/><text fill="#000000" font-family="sans-serif" font-size="13" lengthAdjust="spacingAndGlyphs" textLength="23" x="553.0349" y="597.5667">0..*</text><!--
@startuml
class ClinicaFIS {
 direccion : String
 telefono : String
 web : String

 obtenerDiaHoy() : Fecha
 crearPaciente(dni : String, nombre : String, numeroTarjeta : String, direccion : String, telefono : String, fechaNacimiento : Fecha) : TODO
 consultarPaciente(idPaciente: TODO) : TODO
 datosClinicosPaciente(idPaciente: TODO) : TODO
}

class Paciente {
 dni : String
 nombre : String
 numeroTarjeta : int
 direccion : String
 telefono : String
 fechaNacimiento : String
 activo : Boolean

 crear(dni : String, nombre : String, numeroTarjeta : String, direccion : String, telefono : String, fechaNacimiento : Fecha, activo : Boolean)
 getDni() : String
 getNombre() : String
 getNumeroTarjeta() : String
 getDireccion() : String
 getTelefono() : String
 getFechaNacimiento() : Fecha
 obtenerInfoHC() : TODO
 incluirHC(HC: HistorialClinico)
 obtenerInfoHC() : TODO

}

class HistorialClinico {
 {static} ultHistorial: int
 numeroHistoria : int
 fechaApertura : Fecha

 crear(fechaApertura : Fecha, paciente : Paciente)
 obtenerNumeroHistoria() : int
 obtenerFechaApertura() : Fecha
 obtenerInfoAnotaciones() : TODO
}

class AnotacionHC {
 fechaAnotacion : Fecha
 comentario : String

 getFecha() : Fecha
 getComentario() : String
 obtenerNombreSanitario() : String
}

class Sanitario {
 nombre : String
 dni : String
 puesto : TODO

 getNombre() : String

}

ClinicaFIS - - "1..*" Paciente
Paciente - - "0..1" HistorialClinico
ClinicaFIS ..> HistorialClinico
AnotacionHC -> Sanitario
HistorialClinico -* "0..*" AnotacionHC
@enduml

PlantUML version 1.2018.07beta8(Unknown compile time)
(GPL source distribution)
Java Runtime: Java(TM) SE Runtime Environment
JVM: Java HotSpot(TM) 64-Bit Server VM
Java Version: 1.7.0_25-b15
Operating System: Linux
Default Encoding: UTF-8
Language: en
Country: US
--></g></svg>